<mxfile host="app.diagrams.net" modified="2023-01-20T02:37:02.608Z" agent="5.0 (Windows NT 10.0; Win64; x64) AppleWebKit/537.36 (KHTML, like Gecko) Chrome/109.0.0.0 Safari/537.36 Edg/109.0.1518.55" etag="j_5uOEk4xkJqd2KXAnfS" version="20.8.5" type="github">
  <diagram name="Page-1" id="bd83a815-5ea8-2e97-e5ec-87c9f400f2fa">
    <mxGraphModel dx="1436" dy="911" grid="1" gridSize="10" guides="1" tooltips="1" connect="1" arrows="1" fold="1" page="1" pageScale="1.5" pageWidth="1169" pageHeight="826" background="none" math="0" shadow="0">
      <root>
        <mxCell id="0" style=";html=1;" />
        <mxCell id="1" style=";html=1;" parent="0" />
        <mxCell id="1516e18e63f93b96-4" value="" style="whiteSpace=wrap;html=1;rounded=0;shadow=0;strokeWidth=1;fontSize=14" parent="1" vertex="1">
          <mxGeometry x="1400" y="1140" width="60" height="50" as="geometry" />
        </mxCell>
        <mxCell id="1516e18e63f93b96-5" value="Relation 8" style="whiteSpace=wrap;html=1;rounded=0;shadow=0;strokeWidth=1;fontSize=14" parent="1" vertex="1">
          <mxGeometry x="1460" y="1140" width="210" height="50" as="geometry" />
        </mxCell>
        <mxCell id="1516e18e63f93b96-12" value="" style="rhombus;whiteSpace=wrap;html=1;rounded=0;shadow=0;strokeWidth=3;fillColor=#000000;fontSize=14" parent="1" vertex="1">
          <mxGeometry x="1415" y="1150" width="30" height="30" as="geometry" />
        </mxCell>
        <mxCell id="1516e18e63f93b96-14" value="" style="whiteSpace=wrap;html=1;rounded=0;shadow=0;strokeWidth=1;fontSize=14" parent="1" vertex="1">
          <mxGeometry x="1400" y="1090" width="60" height="50" as="geometry" />
        </mxCell>
        <mxCell id="1516e18e63f93b96-15" value="Relation 7" style="whiteSpace=wrap;html=1;rounded=0;shadow=0;strokeWidth=1;fontSize=14" parent="1" vertex="1">
          <mxGeometry x="1460" y="1090" width="210" height="50" as="geometry" />
        </mxCell>
        <mxCell id="1516e18e63f93b96-18" value="" style="whiteSpace=wrap;html=1;rounded=0;shadow=0;strokeWidth=1;fontSize=14" parent="1" vertex="1">
          <mxGeometry x="1400" y="1040" width="60" height="50" as="geometry" />
        </mxCell>
        <mxCell id="1516e18e63f93b96-19" value="Relation 6" style="whiteSpace=wrap;html=1;rounded=0;shadow=0;strokeWidth=1;fontSize=14" parent="1" vertex="1">
          <mxGeometry x="1460" y="1040" width="210" height="50" as="geometry" />
        </mxCell>
        <mxCell id="1516e18e63f93b96-20" value="" style="whiteSpace=wrap;html=1;rounded=0;shadow=0;strokeWidth=1;fontSize=14" parent="1" vertex="1">
          <mxGeometry x="1400" y="990" width="60" height="50" as="geometry" />
        </mxCell>
        <mxCell id="1516e18e63f93b96-21" value="Relation 5" style="whiteSpace=wrap;html=1;rounded=0;shadow=0;strokeWidth=1;fontSize=14" parent="1" vertex="1">
          <mxGeometry x="1460" y="990" width="210" height="50" as="geometry" />
        </mxCell>
        <mxCell id="1516e18e63f93b96-22" value="" style="whiteSpace=wrap;html=1;rounded=0;shadow=0;strokeWidth=1;fontSize=14" parent="1" vertex="1">
          <mxGeometry x="1400" y="940" width="60" height="50" as="geometry" />
        </mxCell>
        <mxCell id="1516e18e63f93b96-23" value="Relation 4" style="whiteSpace=wrap;html=1;rounded=0;shadow=0;strokeWidth=1;fontSize=14" parent="1" vertex="1">
          <mxGeometry x="1460" y="940" width="210" height="50" as="geometry" />
        </mxCell>
        <mxCell id="1516e18e63f93b96-24" value="" style="whiteSpace=wrap;html=1;rounded=0;shadow=0;strokeWidth=1;fontSize=14" parent="1" vertex="1">
          <mxGeometry x="1400" y="890" width="60" height="50" as="geometry" />
        </mxCell>
        <mxCell id="1516e18e63f93b96-25" value="Relation 3" style="whiteSpace=wrap;html=1;rounded=0;shadow=0;strokeWidth=1;fontSize=14" parent="1" vertex="1">
          <mxGeometry x="1460" y="890" width="210" height="50" as="geometry" />
        </mxCell>
        <mxCell id="1516e18e63f93b96-26" value="" style="whiteSpace=wrap;html=1;rounded=0;shadow=0;strokeWidth=1;fontSize=14" parent="1" vertex="1">
          <mxGeometry x="1400" y="840" width="60" height="50" as="geometry" />
        </mxCell>
        <mxCell id="1516e18e63f93b96-27" value="Relation 2" style="whiteSpace=wrap;html=1;rounded=0;shadow=0;strokeWidth=1;fontSize=14" parent="1" vertex="1">
          <mxGeometry x="1460" y="840" width="210" height="50" as="geometry" />
        </mxCell>
        <mxCell id="1516e18e63f93b96-28" value="" style="whiteSpace=wrap;html=1;rounded=0;shadow=0;strokeWidth=1;fontSize=14" parent="1" vertex="1">
          <mxGeometry x="1400" y="790" width="60" height="50" as="geometry" />
        </mxCell>
        <mxCell id="1516e18e63f93b96-29" value="Relation 1" style="whiteSpace=wrap;html=1;rounded=0;shadow=0;strokeWidth=1;fontSize=14" parent="1" vertex="1">
          <mxGeometry x="1460" y="790" width="210" height="50" as="geometry" />
        </mxCell>
        <mxCell id="1516e18e63f93b96-6" value="" style="ellipse;whiteSpace=wrap;html=1;rounded=0;shadow=0;strokeWidth=3;fontSize=14" parent="1" vertex="1">
          <mxGeometry x="1415" y="800" width="30" height="30" as="geometry" />
        </mxCell>
        <mxCell id="1516e18e63f93b96-7" value="" style="ellipse;whiteSpace=wrap;html=1;rounded=0;shadow=0;strokeWidth=3;fontSize=14;fillColor=#000000;" parent="1" vertex="1">
          <mxGeometry x="1415" y="850" width="30" height="30" as="geometry" />
        </mxCell>
        <mxCell id="1516e18e63f93b96-8" value="" style="triangle;whiteSpace=wrap;html=1;rounded=0;shadow=0;strokeWidth=3;fillColor=#000000;fontSize=14;direction=north;" parent="1" vertex="1">
          <mxGeometry x="1415" y="950" width="30" height="30" as="geometry" />
        </mxCell>
        <mxCell id="1516e18e63f93b96-9" value="" style="triangle;whiteSpace=wrap;html=1;rounded=0;shadow=0;strokeWidth=3;fontSize=14;direction=north;" parent="1" vertex="1">
          <mxGeometry x="1415" y="900" width="30" height="30" as="geometry" />
        </mxCell>
        <mxCell id="1516e18e63f93b96-10" value="" style="whiteSpace=wrap;html=1;rounded=0;shadow=0;strokeWidth=3;fontSize=14" parent="1" vertex="1">
          <mxGeometry x="1415" y="1000" width="30" height="30" as="geometry" />
        </mxCell>
        <mxCell id="1516e18e63f93b96-11" value="" style="whiteSpace=wrap;html=1;rounded=0;shadow=0;strokeWidth=3;fillColor=#000000;fontSize=14" parent="1" vertex="1">
          <mxGeometry x="1415" y="1050" width="30" height="30" as="geometry" />
        </mxCell>
        <mxCell id="1516e18e63f93b96-13" value="" style="rhombus;whiteSpace=wrap;html=1;rounded=0;shadow=0;strokeWidth=3;fontSize=14" parent="1" vertex="1">
          <mxGeometry x="1415" y="1100" width="30" height="30" as="geometry" />
        </mxCell>
        <mxCell id="cnmLZKaRpN2rfUBE1vOu-1" value="Assets" style="childLayout=tableLayout;recursiveResize=0;strokeColor=#98bf21;fillColor=#A7C942;shadow=1;" vertex="1" parent="1">
          <mxGeometry x="330" y="100" width="540" height="500" as="geometry" />
        </mxCell>
        <mxCell id="cnmLZKaRpN2rfUBE1vOu-2" style="shape=tableRow;horizontal=0;startSize=0;swimlaneHead=0;swimlaneBody=0;top=0;left=0;bottom=0;right=0;dropTarget=0;collapsible=0;recursiveResize=0;expand=0;fontStyle=0;strokeColor=inherit;fillColor=#ffffff;" vertex="1" parent="cnmLZKaRpN2rfUBE1vOu-1">
          <mxGeometry width="540" height="103" as="geometry" />
        </mxCell>
        <mxCell id="cnmLZKaRpN2rfUBE1vOu-3" value="" style="connectable=0;recursiveResize=0;strokeColor=inherit;fillColor=#A7C942;align=center;fontStyle=1;fontColor=#FFFFFF;html=1;" vertex="1" parent="cnmLZKaRpN2rfUBE1vOu-2">
          <mxGeometry width="180" height="103" as="geometry">
            <mxRectangle width="180" height="103" as="alternateBounds" />
          </mxGeometry>
        </mxCell>
        <mxCell id="cnmLZKaRpN2rfUBE1vOu-4" value="&lt;font style=&quot;font-size: 20px;&quot; face=&quot;得意黑&quot;&gt;普通用户&lt;/font&gt;" style="connectable=0;recursiveResize=0;strokeColor=inherit;fillColor=#A7C942;align=center;fontStyle=1;fontColor=#FFFFFF;html=1;" vertex="1" parent="cnmLZKaRpN2rfUBE1vOu-2">
          <mxGeometry x="180" width="180" height="103" as="geometry">
            <mxRectangle width="180" height="103" as="alternateBounds" />
          </mxGeometry>
        </mxCell>
        <mxCell id="cnmLZKaRpN2rfUBE1vOu-5" value="&lt;font face=&quot;得意黑&quot; style=&quot;font-size: 20px;&quot;&gt;会员&lt;/font&gt;" style="connectable=0;recursiveResize=0;strokeColor=inherit;fillColor=#A7C942;align=center;fontStyle=1;fontColor=#FFFFFF;html=1;" vertex="1" parent="cnmLZKaRpN2rfUBE1vOu-2">
          <mxGeometry x="360" width="180" height="103" as="geometry">
            <mxRectangle width="180" height="103" as="alternateBounds" />
          </mxGeometry>
        </mxCell>
        <mxCell id="cnmLZKaRpN2rfUBE1vOu-6" value="" style="shape=tableRow;horizontal=0;startSize=0;swimlaneHead=0;swimlaneBody=0;top=0;left=0;bottom=0;right=0;dropTarget=0;collapsible=0;recursiveResize=0;expand=0;fontStyle=0;strokeColor=inherit;fillColor=#ffffff;" vertex="1" parent="cnmLZKaRpN2rfUBE1vOu-1">
          <mxGeometry y="103" width="540" height="100" as="geometry" />
        </mxCell>
        <mxCell id="cnmLZKaRpN2rfUBE1vOu-7" value="提前预约" style="connectable=0;recursiveResize=0;strokeColor=inherit;fillColor=inherit;align=center;whiteSpace=wrap;html=1;" vertex="1" parent="cnmLZKaRpN2rfUBE1vOu-6">
          <mxGeometry width="180" height="100" as="geometry">
            <mxRectangle width="180" height="100" as="alternateBounds" />
          </mxGeometry>
        </mxCell>
        <mxCell id="cnmLZKaRpN2rfUBE1vOu-8" value="当天" style="connectable=0;recursiveResize=0;strokeColor=inherit;fillColor=inherit;align=center;whiteSpace=wrap;html=1;" vertex="1" parent="cnmLZKaRpN2rfUBE1vOu-6">
          <mxGeometry x="180" width="180" height="100" as="geometry">
            <mxRectangle width="180" height="100" as="alternateBounds" />
          </mxGeometry>
        </mxCell>
        <mxCell id="cnmLZKaRpN2rfUBE1vOu-9" value="7天" style="connectable=0;recursiveResize=0;strokeColor=inherit;fillColor=inherit;align=center;whiteSpace=wrap;html=1;" vertex="1" parent="cnmLZKaRpN2rfUBE1vOu-6">
          <mxGeometry x="360" width="180" height="100" as="geometry">
            <mxRectangle width="180" height="100" as="alternateBounds" />
          </mxGeometry>
        </mxCell>
        <mxCell id="cnmLZKaRpN2rfUBE1vOu-10" value="" style="shape=tableRow;horizontal=0;startSize=0;swimlaneHead=0;swimlaneBody=0;top=0;left=0;bottom=0;right=0;dropTarget=0;collapsible=0;recursiveResize=0;expand=0;fontStyle=1;strokeColor=inherit;fillColor=#EAF2D3;" vertex="1" parent="cnmLZKaRpN2rfUBE1vOu-1">
          <mxGeometry y="203" width="540" height="97" as="geometry" />
        </mxCell>
        <mxCell id="cnmLZKaRpN2rfUBE1vOu-11" value="申请长期固定座位" style="connectable=0;recursiveResize=0;strokeColor=inherit;fillColor=inherit;whiteSpace=wrap;html=1;" vertex="1" parent="cnmLZKaRpN2rfUBE1vOu-10">
          <mxGeometry width="180" height="97" as="geometry">
            <mxRectangle width="180" height="97" as="alternateBounds" />
          </mxGeometry>
        </mxCell>
        <mxCell id="cnmLZKaRpN2rfUBE1vOu-12" value="" style="connectable=0;recursiveResize=0;strokeColor=inherit;fillColor=inherit;whiteSpace=wrap;html=1;" vertex="1" parent="cnmLZKaRpN2rfUBE1vOu-10">
          <mxGeometry x="180" width="180" height="97" as="geometry">
            <mxRectangle width="180" height="97" as="alternateBounds" />
          </mxGeometry>
        </mxCell>
        <mxCell id="cnmLZKaRpN2rfUBE1vOu-13" value="" style="connectable=0;recursiveResize=0;strokeColor=inherit;fillColor=inherit;whiteSpace=wrap;html=1;" vertex="1" parent="cnmLZKaRpN2rfUBE1vOu-10">
          <mxGeometry x="360" width="180" height="97" as="geometry">
            <mxRectangle width="180" height="97" as="alternateBounds" />
          </mxGeometry>
        </mxCell>
        <mxCell id="cnmLZKaRpN2rfUBE1vOu-14" value="" style="shape=tableRow;horizontal=0;startSize=0;swimlaneHead=0;swimlaneBody=0;top=0;left=0;bottom=0;right=0;dropTarget=0;collapsible=0;recursiveResize=0;expand=0;fontStyle=0;strokeColor=inherit;fillColor=#ffffff;" vertex="1" parent="cnmLZKaRpN2rfUBE1vOu-1">
          <mxGeometry y="300" width="540" height="103" as="geometry" />
        </mxCell>
        <mxCell id="cnmLZKaRpN2rfUBE1vOu-15" value="积分获取" style="connectable=0;recursiveResize=0;strokeColor=inherit;fillColor=inherit;fontStyle=0;align=center;whiteSpace=wrap;html=1;" vertex="1" parent="cnmLZKaRpN2rfUBE1vOu-14">
          <mxGeometry width="180" height="103" as="geometry">
            <mxRectangle width="180" height="103" as="alternateBounds" />
          </mxGeometry>
        </mxCell>
        <mxCell id="cnmLZKaRpN2rfUBE1vOu-16" value="" style="connectable=0;recursiveResize=0;strokeColor=inherit;fillColor=inherit;fontStyle=0;align=center;whiteSpace=wrap;html=1;" vertex="1" parent="cnmLZKaRpN2rfUBE1vOu-14">
          <mxGeometry x="180" width="180" height="103" as="geometry">
            <mxRectangle width="180" height="103" as="alternateBounds" />
          </mxGeometry>
        </mxCell>
        <mxCell id="cnmLZKaRpN2rfUBE1vOu-17" value="" style="connectable=0;recursiveResize=0;strokeColor=inherit;fillColor=inherit;fontStyle=0;align=center;whiteSpace=wrap;html=1;" vertex="1" parent="cnmLZKaRpN2rfUBE1vOu-14">
          <mxGeometry x="360" width="180" height="103" as="geometry">
            <mxRectangle width="180" height="103" as="alternateBounds" />
          </mxGeometry>
        </mxCell>
        <mxCell id="cnmLZKaRpN2rfUBE1vOu-18" value="" style="shape=tableRow;horizontal=0;startSize=0;swimlaneHead=0;swimlaneBody=0;top=0;left=0;bottom=0;right=0;dropTarget=0;collapsible=0;recursiveResize=0;expand=0;fontStyle=1;strokeColor=inherit;fillColor=#EAF2D3;" vertex="1" parent="cnmLZKaRpN2rfUBE1vOu-1">
          <mxGeometry y="403" width="540" height="97" as="geometry" />
        </mxCell>
        <mxCell id="cnmLZKaRpN2rfUBE1vOu-19" value="积分兑换" style="connectable=0;recursiveResize=0;strokeColor=inherit;fillColor=inherit;whiteSpace=wrap;html=1;" vertex="1" parent="cnmLZKaRpN2rfUBE1vOu-18">
          <mxGeometry width="180" height="97" as="geometry">
            <mxRectangle width="180" height="97" as="alternateBounds" />
          </mxGeometry>
        </mxCell>
        <mxCell id="cnmLZKaRpN2rfUBE1vOu-20" value="" style="connectable=0;recursiveResize=0;strokeColor=inherit;fillColor=inherit;whiteSpace=wrap;html=1;" vertex="1" parent="cnmLZKaRpN2rfUBE1vOu-18">
          <mxGeometry x="180" width="180" height="97" as="geometry">
            <mxRectangle width="180" height="97" as="alternateBounds" />
          </mxGeometry>
        </mxCell>
        <mxCell id="cnmLZKaRpN2rfUBE1vOu-21" value="" style="connectable=0;recursiveResize=0;strokeColor=inherit;fillColor=inherit;whiteSpace=wrap;html=1;" vertex="1" parent="cnmLZKaRpN2rfUBE1vOu-18">
          <mxGeometry x="360" width="180" height="97" as="geometry">
            <mxRectangle width="180" height="97" as="alternateBounds" />
          </mxGeometry>
        </mxCell>
        <mxCell id="cnmLZKaRpN2rfUBE1vOu-26" value="" style="shape=image;html=1;verticalAlign=top;verticalLabelPosition=bottom;labelBackgroundColor=#ffffff;imageAspect=0;aspect=fixed;image=https://cdn2.iconfinder.com/data/icons/essential-web-1-1/50/close-cross-error-wrong-reject-128.png;fontFamily=得意黑;fontSize=20;" vertex="1" parent="1">
          <mxGeometry x="585" y="335" width="30" height="30" as="geometry" />
        </mxCell>
        <mxCell id="cnmLZKaRpN2rfUBE1vOu-29" value="" style="shape=image;html=1;verticalAlign=top;verticalLabelPosition=bottom;labelBackgroundColor=#ffffff;imageAspect=0;aspect=fixed;image=https://cdn2.iconfinder.com/data/icons/arrows-and-universal-actions-icon-set/256/ok-128.png;fontFamily=得意黑;fontSize=20;" vertex="1" parent="1">
          <mxGeometry x="760" y="326" width="48" height="48" as="geometry" />
        </mxCell>
        <mxCell id="cnmLZKaRpN2rfUBE1vOu-30" value="" style="shape=image;html=1;verticalAlign=top;verticalLabelPosition=bottom;labelBackgroundColor=#ffffff;imageAspect=0;aspect=fixed;image=https://cdn2.iconfinder.com/data/icons/arrows-and-universal-actions-icon-set/256/ok-128.png;fontFamily=得意黑;fontSize=20;" vertex="1" parent="1">
          <mxGeometry x="576" y="430" width="48" height="48" as="geometry" />
        </mxCell>
        <mxCell id="cnmLZKaRpN2rfUBE1vOu-31" value="" style="shape=image;html=1;verticalAlign=top;verticalLabelPosition=bottom;labelBackgroundColor=#ffffff;imageAspect=0;aspect=fixed;image=https://cdn2.iconfinder.com/data/icons/arrows-and-universal-actions-icon-set/256/ok-128.png;fontFamily=得意黑;fontSize=20;" vertex="1" parent="1">
          <mxGeometry x="760" y="430" width="48" height="48" as="geometry" />
        </mxCell>
        <mxCell id="cnmLZKaRpN2rfUBE1vOu-32" value="" style="shape=image;html=1;verticalAlign=top;verticalLabelPosition=bottom;labelBackgroundColor=#ffffff;imageAspect=0;aspect=fixed;image=https://cdn2.iconfinder.com/data/icons/essential-web-1-1/50/close-cross-error-wrong-reject-128.png;fontFamily=得意黑;fontSize=20;" vertex="1" parent="1">
          <mxGeometry x="585" y="540" width="30" height="30" as="geometry" />
        </mxCell>
        <mxCell id="cnmLZKaRpN2rfUBE1vOu-33" value="" style="shape=image;html=1;verticalAlign=top;verticalLabelPosition=bottom;labelBackgroundColor=#ffffff;imageAspect=0;aspect=fixed;image=https://cdn2.iconfinder.com/data/icons/arrows-and-universal-actions-icon-set/256/ok-128.png;fontFamily=得意黑;fontSize=20;" vertex="1" parent="1">
          <mxGeometry x="760" y="531" width="48" height="48" as="geometry" />
        </mxCell>
      </root>
    </mxGraphModel>
  </diagram>
</mxfile>
